<?xml version="1.0" standalone="no"?><!DOCTYPE svg PUBLIC "-//W3C//DTD SVG 1.1//EN" "http://www.w3.org/Graphics/SVG/1.1/DTD/svg11.dtd"><svg t="1588758016522" class="icon" viewBox="0 0 1024 1024" version="1.1" xmlns="http://www.w3.org/2000/svg" p-id="1222" xmlns:xlink="http://www.w3.org/1999/xlink" width="200" height="200"><defs><style type="text/css"></style></defs><path d="M512 131.2c25.3 0 45.8 20.6 45.8 45.8H625c0-62.4-50.6-113-113-113H177c-62.4 0-113 50.6-113 113v670c0 62.4 50.6 113 113 113h335c62.4 0 113-50.6 113-113h-67.2c0 25.3-20.6 45.8-45.8 45.8H177c-25.3 0-45.8-20.6-45.8-45.8V177c0-25.3 20.6-45.8 45.8-45.8h335" fill="#A6CBDD" p-id="1223"></path><path d="M378.1 297.8c0-18.6-15-33.6-33.6-33.6s-33.6 15-33.6 33.6v294.1c0 18.6 15 33.6 33.6 33.6s33.6-15 33.6-33.6V297.8zM344.5 675.5c-18.6 0-33.6 15-33.6 33.6v17.2c0 18.6 15 33.6 33.6 33.6s33.6-15 33.6-33.6v-17.2c0-18.6-15-33.6-33.6-33.6z" fill="#60A9D1" p-id="1224"></path><path d="M875.9 248.9h-318V177h67.2v4.7h250.8zM625.1 850h-67.2v-71.9h318v67.2H625.1z" fill="#A6CBDD" p-id="1225"></path><path d="M875.9 545.6h-318v-340h67.2v272.8h250.8z" fill="#A6CBDD" p-id="1226"></path><path d="M852 213m-108 0a108 108 0 1 0 216 0 108 108 0 1 0-216 0Z" fill="#60A9D1" p-id="1227"></path><path d="M920.4 904.5H787.1c-14.4 0-26.1-11.7-26.1-26.1V745.1c0-14.4 11.7-26.1 26.1-26.1h133.3c14.4 0 26.1 11.7 26.1 26.1v133.3c0 14.4-11.7 26.1-26.1 26.1zM750.6 394.9L953.5 512 750.6 629.1z" fill="#60A9D1" p-id="1228"></path><path d="M557.9 512h67.2v299.7h-67.2z" fill="#A6CBDD" p-id="1229"></path></svg>