<?xml version="1.0" standalone="no"?><!DOCTYPE svg PUBLIC "-//W3C//DTD SVG 1.1//EN" "http://www.w3.org/Graphics/SVG/1.1/DTD/svg11.dtd"><svg t="1588757959677" class="icon" viewBox="0 0 1024 1024" version="1.1" xmlns="http://www.w3.org/2000/svg" p-id="896" width="200" height="200" xmlns:xlink="http://www.w3.org/1999/xlink"><defs><style type="text/css"></style></defs><path d="M543.069 259.201h334.234c15.655 0 28.521-12.865 28.521-28.521s-12.865-28.521-28.521-28.521h-334.234c-15.655 0-28.521 12.865-28.521 28.521s12.743 28.521 28.521 28.521zM877.181 361.874h-334.112c-15.655 0-28.521 12.865-28.521 28.521s12.865 28.521 28.521 28.521h334.234c15.655 0 28.521-12.865 28.521-28.521s-12.865-28.521-28.641-28.521zM370.369 141.479h-168.694c-46.846 0-84.955 38.108-84.955 84.955v168.694c0 46.846 38.108 84.955 84.955 84.955h168.694c46.846 0 84.955-38.108 84.955-84.955v-168.694c0-46.846-38.108-84.955-84.955-84.955zM401.923 395.127c0 17.355-14.199 31.554-31.554 31.554h-168.694c-17.355 0-31.554-14.199-31.554-31.554v-168.694c0-17.355 14.199-31.554 31.554-31.554h168.694c17.355 0 31.554 14.199 31.554 31.554v168.694zM877.181 600.716h-334.112c-15.655 0-28.521 12.865-28.521 28.521s12.865 28.521 28.521 28.521h334.234c15.655 0 28.521-12.865 28.521-28.521-0.122-15.655-12.865-28.521-28.641-28.521zM877.181 760.43h-334.112c-15.655 0-28.521 12.865-28.521 28.521s12.865 28.521 28.521 28.521h334.234c15.655 0 28.521-12.865 28.521-28.521-0.122-15.655-12.865-28.521-28.641-28.521zM370.369 539.914h-168.694c-46.846 0-84.955 38.108-84.955 84.955v168.694c0 46.846 38.108 84.955 84.955 84.955h168.694c46.846 0 84.955-38.108 84.955-84.955v-168.694c0-46.846-38.108-84.955-84.955-84.955zM401.923 793.563c0 17.355-14.199 31.554-31.554 31.554h-168.694c-17.355 0-31.554-14.199-31.554-31.554v-168.694c0-17.355 14.199-31.554 31.554-31.554h168.694c17.355 0 31.554 14.199 31.554 31.554v168.694z" fill="" p-id="897"></path></svg>