<?xml version="1.0" standalone="no"?><!DOCTYPE svg PUBLIC "-//W3C//DTD SVG 1.1//EN" "http://www.w3.org/Graphics/SVG/1.1/DTD/svg11.dtd"><svg t="1589518800738" class="icon" viewBox="0 0 1024 1024" version="1.1" xmlns="http://www.w3.org/2000/svg" p-id="3537" width="200" height="200" xmlns:xlink="http://www.w3.org/1999/xlink"><defs><style type="text/css"></style></defs><path d="M406.974359 708.923077h210.051282c159.507692 0 288.820513 129.312821 288.820513 288.820513H118.153846c0-159.507692 129.312821-288.820513 288.820513-288.820513z" fill="#C2E8FF" p-id="3538"></path><path d="M617.025641 698.420513h-210.051282c-165.310359 0-299.323077 134.012718-299.323077 299.323077 0 5.802667 4.726154 10.502564 10.502564 10.502564h787.692308a10.502564 10.502564 0 0 0 10.502564-10.633846l-0.105026-7.561846c-4.174769-162.133333-136.822154-291.629949-299.218051-291.629949z m0 21.005128l7.53559 0.105026c145.04041 3.859692 262.826667 118.810256 270.388513 263.404307l0.157538 4.306052H128.866462l0.183794-4.516103c7.798154-146.720821 129.260308-263.299282 277.924103-263.299282h210.051282z" fill="#7496C4" p-id="3539"></path><path d="M512 472.615385a131.282051 131.282051 0 0 1 131.282051 131.282051v105.025641l-131.282051 105.025641-131.282051-105.025641v-105.025641a131.282051 131.282051 0 0 1 131.282051-131.282051z" fill="#FBD998" p-id="3540"></path><path d="M512 462.112821a141.784615 141.784615 0 0 0-141.784615 141.784615v105.025641a10.502564 10.502564 0 0 0 3.938461 8.218256l131.282051 105.025641a10.502564 10.502564 0 0 0 13.128206 0l131.282051-105.025641a10.502564 10.502564 0 0 0 3.938461-8.218256v-105.025641a141.784615 141.784615 0 0 0-141.784615-141.784615z m5.513846 21.13641A120.779487 120.779487 0 0 1 632.779487 603.897436v99.958154l-120.779487 96.623589-120.779487-96.597333v-99.98441a120.779487 120.779487 0 0 1 120.779487-120.779487l5.513846 0.131282z" fill="#967A44" p-id="3541"></path><path d="M699.028206 456.216972a32.085333 53.484308 33 1 0 53.818049 34.94985 32.085333 53.484308 33 1 0-53.818049-34.94985Z" fill="#FBD998" p-id="3542"></path><path d="M324.966908 456.21842a53.484308 32.085333 57 1 1-53.81805 34.94985 53.484308 32.085333 57 1 1 53.81805-34.94985Z" fill="#FBD998" p-id="3543"></path><path d="M759.729231 421.651692c-19.797333-12.865641-49.545846 1.68041-67.872821 29.906052s-19.508513 61.308718 0.288821 74.174359c19.797333 12.865641 49.572103-1.68041 67.899077-29.906052s19.482256-61.308718-0.315077-74.174359z m-9.321026 14.362257c9.924923 6.432821 9.110974 29.144615-4.726154 50.491077-13.863385 21.320205-34.290872 31.297641-44.215795 24.86482-9.924923-6.432821-9.110974-29.170872 4.726154-50.491077 13.863385-21.320205 34.290872-31.323897 44.215795-24.86482zM264.270769 421.651692c19.797333-12.865641 49.545846 1.68041 67.872821 29.906052s19.508513 61.308718-0.288821 74.174359c-19.797333 12.865641-49.572103-1.68041-67.899077-29.906052s-19.482256-61.308718 0.315077-74.174359z m9.321026 14.362257c-9.924923 6.432821-9.110974 29.144615 4.726154 50.491077 13.863385 21.320205 34.290872 31.297641 44.215795 24.86482 9.924923-6.432821 9.110974-29.170872-4.726154-50.491077-13.863385-21.320205-34.290872-31.323897-44.215795-24.86482z" fill="#967A44" p-id="3544"></path><path d="M452.791795 278.475487c50.333538 0 139.841641-34.238359 166.413128-81.053538 22.974359 15.570051 88.142769 37.888 88.142769 129.706666l-0.65641 211.862975c0 79.661949-72.073846 135.640615-129.627897 164.995282-17.486769 8.927179-27.306667 30.72-69.658257 30.72s-62.437744-29.722256-72.835282-36.758975c-71.154872-33.818256-118.206359-81.92-127.894974-158.956307l0.65641-190.201436c0-37.205333 68.135385-70.28841 145.460513-70.28841z" fill="#FBD998" p-id="3545"></path><path d="M611.748103 193.194667c-21.740308 38.334359-99.091692 74.174359-153.258667 76.616205l-5.697641 0.131282c-81.342359 0-154.020103 35.18359-154.020103 78.848l-0.65641 190.148923c9.609846 76.852513 53.825641 129.181538 132.778667 166.728205l10.502564 9.793641c2.940718 2.678154 5.855179 5.251282 7.798154 6.826667 16.804103 13.390769 35.262359 21.005128 58.210461 21.005128 22.659282 0 37.625436-5.198769 52.512821-16.01641l4.069743-3.072c1.575385-1.234051 7.483077-6.091487 8.92718-7.220513 3.150769-2.468103 5.592615-4.122256 8.034461-5.382564 79.740718-40.644923 134.301538-100.430769 134.301539-172.609641l0.65641-211.836718c0-51.173744-18.589538-85.910974-51.357538-111.222154l-4.647385-3.360821a613.979897 613.979897 0 0 0-35.918769-22.239179 8.55959 8.55959 0 0 0-12.235487 2.861949z m8.900923 17.513025l1.234051-1.811692 14.257231 8.664615c7.036718 4.384821 14.047179 8.927179 17.959384 11.920411 28.724513 22.186667 44.68841 52.040205 44.688411 97.647589l-0.656411 211.836718c0 64.196923-50.359795 119.361641-124.954256 157.40718-2.363077 1.207795-4.647385 2.625641-7.089231 4.332308l-3.754667 2.809435-8.953435 7.273026c-13.469538 10.633846-25.389949 15.386256-45.948718 15.386256-18.720821 0-33.581949-6.117744-47.550359-17.276717l-6.616616-5.776411c-5.461333-4.936205-12.025436-11.001436-13.889641-12.261743-75.172103-35.84-115.475692-83.521641-124.19282-152.94359l0.708923-189.098667c0-29.932308 60.022154-59.890872 130.284307-61.702564l6.616616-0.078769c55.926154 0 136.270769-34.527179 167.857231-76.327385z" fill="#967A44" p-id="3546"></path><path d="M506.617436 27.542974c105.629538 11.579077 105.682051 66.376205 125.29559 67.505231 238.513231 13.810872 111.064615 368.351179 75.434666 368.35118h-0.446359l0.446359-136.27077c0-89.193026-61.492513-112.797538-86.094769-128.367589l-2.048-1.339077c-26.571487 46.815179-116.053333 81.079795-166.413128 81.079795-77.325128 0-145.460513 33.083077-145.460513 70.28841l-0.420103 114.582974-0.262564 0.026257C234.390974 316.416 225.227487 202.436923 279.236923 121.462154c35.498667-53.221744 135.483077-103.975385 227.406769-93.91918z" fill="#A7714E" p-id="3547"></path><path d="M272.095179 116.736c-56.031179 83.994256-46.631385 201.019077 26.886565 350.444308a8.507077 8.507077 0 0 0 6.485333 4.673641l2.179282 0.052513a8.55959 8.55959 0 0 0 7.82441-8.507077l0.420103-114.582975 0.157538-2.835692c3.124513-28.882051 62.070154-57.107692 130.126769-58.840615l12.708103-0.210052c55.506051-2.363077 131.334564-35.918769 161.739487-76.222359l1.155282-1.68041 12.209231 7.089231c7.798154 4.594872 14.073436 8.717128 20.11241 13.390769 28.724513 22.16041 44.68841 52.013949 44.688411 97.621333l-0.446359 136.218257c0 3.938462 2.625641 7.273026 6.275282 8.270769l2.363077 0.341333c27.910564 0 67.794051-100.877128 73.990564-186.945641 8.270769-114.950564-37.861744-192.091897-148.55877-198.498461-0.630154-0.026256-1.444103-0.446359-2.888205-1.785436l-6.695384-8.244513c-6.065231-7.273026-15.018667-17.486769-21.21518-22.764308C580.371692 35.708718 550.728205 23.788308 507.53641 19.062154 418.500923 9.242256 312.503795 56.083692 272.095179 116.736zM505.698462 36.023795c39.909744 4.384821 66.323692 15.018667 84.808205 30.72 8.769641 7.430564 26.335179 29.512205 27.306666 30.431179a21.241436 21.241436 0 0 0 13.627077 6.406564c99.511795 5.750154 140.130462 73.675487 132.46359 180.171488l-0.525128 6.459077c-5.618872 60.232205-29.249641 128.787692-45.42359 154.308923l-2.468103 3.544615 0.420103-120.937026c0-51.173744-18.589538-85.910974-51.357538-111.222153a186.157949 186.157949 0 0 0-15.858872-10.922667l-22.843077-13.469539-1.969231-1.31282a8.55959 8.55959 0 0 0-12.130461 2.966974c-21.740308 38.334359-99.091692 74.174359-153.258667 76.616205l-5.697641 0.131282c-78.506667 0-149.293949 32.846769-153.783795 74.673231l-0.210051 3.72841-0.315077 77.220103-2.363077-5.40882C242.084103 294.754462 239.169641 196.923077 286.326154 126.214564 323.111385 71.049846 422.859487 26.939077 505.698462 36.050051z" fill="#7A4F35" p-id="3548"></path><path d="M380.717949 708.923077l133.855179 105.025641-131.282051 39.384615z" fill="#C2E8FF" p-id="3549"></path><path d="M644.148513 708.923077l-133.85518 105.025641 131.282052 39.384615z" fill="#C2E8FF" p-id="3550"></path><path d="M370.215385 709.106872l2.573128 144.410256a10.502564 10.502564 0 0 0 13.522051 9.87241l131.282051-39.384615a10.502564 10.502564 0 0 0 3.465847-18.300718l-133.85518-105.025641a10.502564 10.502564 0 0 0-16.987897 8.428308z m21.372718 21.714051l100.562051 78.874256-98.619077 29.590975-1.942974-108.438975z" fill="#7496C4" p-id="3551"></path><path d="M654.677333 709.106872l-2.573128 144.410256a10.502564 10.502564 0 0 1-13.522051 9.87241l-131.282051-39.384615a10.502564 10.502564 0 0 1-3.465847-18.300718l133.85518-105.025641a10.502564 10.502564 0 0 1 16.987897 8.428308z m-21.398974 21.714051l-100.562051 78.900513 98.645333 29.564718 1.916718-108.438975z" fill="#7496C4" p-id="3552"></path><path d="M512 892.717949l78.769231-139.053949-78.769231 34.028308-78.769231-34.028308z" fill="#4E7AB6" p-id="3553"></path><path d="M512 787.692308l78.769231 210.051282h-157.538462z" fill="#4E7AB6" p-id="3554"></path></svg>